<?xml version="1.0" standalone="no"?>
<!DOCTYPE svg PUBLIC "-//W3C//DTD SVG 1.1//EN" "http://www.w3.org/Graphics/SVG/1.1/DTD/svg11.dtd" >
<svg>
<metadata>
Created by FontForge 20110222 at Fri Dec  6 00:27:31 2013
 By Orthosie Webhosting
Copyright (c) 2012 by Style-7. All rights reserved. http://www.styleseven.com
</metadata>
<defs>
<font id="SquarePixel7Regular" horiz-adv-x="550" >
  <font-face 
    font-family="SquarePixel7Regular"
    font-weight="400"
    font-stretch="normal"
    units-per-em="1000"
    panose-1="2 0 0 0 0 0 0 0 0 0"
    ascent="750"
    descent="-250"
    x-height="500"
    cap-height="500"
    bbox="0 -50 600 550"
    underline-thickness="50"
    underline-position="-50"
    unicode-range="U+0020-2122"
  />
<missing-glyph horiz-adv-x="500" 
 />
    <glyph glyph-name=".notdef" horiz-adv-x="500" 
 />
    <glyph glyph-name=".null" horiz-adv-x="0" 
 />
    <glyph glyph-name="nonmarkingreturn" horiz-adv-x="500" 
 />
    <glyph glyph-name="space" unicode=" " horiz-adv-x="500" 
 />
    <glyph glyph-name="space" unicode="&#xa0;" horiz-adv-x="500" 
 />
    <glyph glyph-name="exclam" unicode="!" 
d="M200 500h100v-350h-100v350zM200 100h100v-100h-100v100z" />
    <glyph glyph-name="quotedbl" unicode="&#x22;" 
d="M100 500h100v-200h-100v200zM300 500h100v-200h-100v200z" />
    <glyph glyph-name="numbersign" unicode="#" 
d="M0 400h100v100h100v-100h100v100h100v-100h100v-100h-100v-100h100v-100h-100v-100h-100v100h-100v-100h-100v100h-100v100h100v100h-100v100zM200 200h100v100h-100v-100z" />
    <glyph glyph-name="dollar" unicode="$" 
d="M0 500h200v50h100v-50h200v-100h-200v-100h200v-300h-200v-50h-100v50h-200v100h200v100h-200v300zM100 300h100v100h-100v-100zM300 100h100v100h-100v-100z" />
    <glyph glyph-name="percent" unicode="%" 
d="M0 100h50v50h50v50h50v50h50v50h50v50h50v50h50v50h50v50h100v-100h-50v-50h-50v-50h-50v-50h-50v-50h-50v-50h-50v-50h-50v-50h-50v-50h-100v100zM350 150h150v-150h-150v150zM0 500h150v-150h-150v150z" />
    <glyph glyph-name="ampersand" unicode="&#x26;" 
d="M0 500h400v-200h100v-100h-100v-100h100v-100h-500v500zM100 100h200v100h-200v-100zM100 300h200v100h-200v-100z" />
    <glyph glyph-name="quotesingle" unicode="'" 
d="M200 500h100v-200h-100v200z" />
    <glyph glyph-name="parenleft" unicode="(" 
d="M200 400h50v50h50v50h100v-100h-50v-50h-50v-200h50v-50h50v-100h-100v50h-50v50h-50v300z" />
    <glyph glyph-name="parenright" unicode=")" 
d="M100 500h100v-50h50v-50h50v-300h-50v-50h-50v-50h-100v100h50v50h50v200h-50v50h-50v100z" />
    <glyph glyph-name="asterisk" unicode="*" 
d="M50 450h100v-50h50v50h100v-50h50v50h100v-100h-50v-50h50v-100h-50v-50h50v-100h-100v50h-50v-50h-100v50h-50v-50h-100v100h50v50h-50v100h50v50h-50v100zM300 300h-100v-100h100v100z" />
    <glyph glyph-name="plus" unicode="+" 
d="M100 300h100v100h100v-100h100v-100h-100v-100h-100v100h-100v100z" />
    <glyph glyph-name="comma" unicode="," 
d="M200 100h100v-150h-50v50h-50v100z" />
    <glyph glyph-name="hyphen" unicode="-" 
d="M100 300h300v-100h-300v100z" />
    <glyph glyph-name="period" unicode="." 
d="M200 100h100v-100h-100v100z" />
    <glyph glyph-name="slash" unicode="/" 
d="M0 100h50v50h50v50h50v50h50v50h50v50h50v50h50v50h50v50h100v-100h-50v-50h-50v-50h-50v-50h-50v-50h-50v-50h-50v-50h-50v-50h-50v-50h-100v100z" />
    <glyph glyph-name="zero" unicode="0" 
d="M0 500h500v-500h-500v500zM400 300h-50v-50h-50v-50h-50v-50h-50v-50h200v200zM100 200h50v50h50v50h50v50h50v50h-200v-200z" />
    <glyph glyph-name="one" unicode="1" 
d="M150 500h200v-400h100v-100h-300v100h100v300h-100v100z" />
    <glyph glyph-name="two" unicode="2" 
d="M0 500h500v-300h-400v-100h400v-100h-500v300h400v100h-400v100z" />
    <glyph glyph-name="three" unicode="3" 
d="M0 500h500v-500h-500v100h400v100h-350v100h350v100h-400v100z" />
    <glyph glyph-name="four" unicode="4" 
d="M0 500h100v-200h300v200h100v-500h-100v200h-400v300z" />
    <glyph glyph-name="five" unicode="5" 
d="M0 500h500v-100h-400v-100h350v-50h50v-200h-50v-50h-450v100h400v100h-400v300z" />
    <glyph glyph-name="six" unicode="6" 
d="M0 500h500v-100h-400v-100h400v-300h-500v500zM100 100h300v100h-300v-100z" />
    <glyph glyph-name="seven" unicode="7" 
d="M0 500h500v-500h-100v400h-400v100z" />
    <glyph glyph-name="eight" unicode="8" 
d="M0 500h500v-500h-500v500zM100 300h300v100h-300v-100zM100 100h300v100h-300v-100z" />
    <glyph glyph-name="nine" unicode="9" 
d="M0 500h500v-500h-500v100h400v100h-400v300zM100 300h300v100h-300v-100z" />
    <glyph glyph-name="colon" unicode=":" 
d="M200 400h100v-100h-100v100zM200 200h100v-100h-100v100z" />
    <glyph glyph-name="semicolon" unicode=";" 
d="M200 100h100v-150h-50v50h-50v100zM200 400h100v-100h-100v100z" />
    <glyph glyph-name="less" unicode="&#x3c;" 
d="M100 250h50v50h50v50h50v50h100v-100h-50v-50h-50v-50h50v-50h50v-100h-100v50h-50v50h-50v50h-50v50z" />
    <glyph glyph-name="equal" unicode="=" 
d="M100 400h300v-100h-300v100zM100 200h300v-100h-300v100z" />
    <glyph glyph-name="greater" unicode="&#x3e;" 
d="M150 400h100v-50h50v-50h50v-50h50v-50h-50v-50h-50v-50h-50v-50h-100v100h50v50h50v50h-50v50h-50v100z" />
    <glyph glyph-name="question" unicode="?" 
d="M50 500h400v-50h50v-200h-50v-50h-150v-50h-100v150h200v100h-350v100zM200 100h100v-100h-100v100z" />
    <glyph glyph-name="at" unicode="@" 
d="M0 500h500v-300h-300v100h200v100h-300v-300h400v-100h-500v500z" />
    <glyph glyph-name="A" unicode="A" 
d="M0 500h500v-500h-100v200h-300v-200h-100v500zM100 300h300v100h-300v-100z" />
    <glyph glyph-name="B" unicode="B" 
d="M0 500h450v-50h50v-400h-50v-50h-450v500zM100 300h300v100h-300v-100zM100 100h300v100h-300v-100z" />
    <glyph glyph-name="C" unicode="C" 
d="M0 500h500v-100h-400v-300h400v-100h-500v500z" />
    <glyph glyph-name="D" unicode="D" 
d="M0 500h450v-50h50v-400h-50v-50h-450v500zM100 100h300v300h-300v-300z" />
    <glyph glyph-name="E" unicode="E" 
d="M0 500h500v-100h-400v-100h350v-100h-350v-100h400v-100h-500v500z" />
    <glyph glyph-name="F" unicode="F" 
d="M0 500h500v-100h-400v-100h350v-100h-350v-200h-100v500z" />
    <glyph glyph-name="G" unicode="G" 
d="M0 500h500v-100h-400v-300h300v100h-150v100h250v-300h-500v500z" />
    <glyph glyph-name="H" unicode="H" 
d="M0 500h100v-200h300v200h100v-500h-100v200h-300v-200h-100v500z" />
    <glyph glyph-name="I" unicode="I" 
d="M100 500h300v-100h-100v-300h100v-100h-300v100h100v300h-100v100z" />
    <glyph glyph-name="J" unicode="J" 
d="M0 500h500v-450h-50v-50h-400v50h-50v150h100v-100h300v300h-400v100z" />
    <glyph glyph-name="K" unicode="K" 
d="M0 500h100v-200h150v50h50v50h50v50h50v50h100v-100h-50v-50h-50v-50h-50v-100h50v-50h50v-50h50v-100h-100v50h-50v50h-50v50h-50v50h-150v-200h-100v500z" />
    <glyph glyph-name="L" unicode="L" 
d="M0 500h100v-400h400v-100h-500v500z" />
    <glyph glyph-name="M" unicode="M" 
d="M0 500h100v-50h50v-50h50v-50h100v50h50v50h50v50h100v-500h-100v300h-50v-50h-50v-100h-100v100h-50v50h-50v-300h-100v500z" />
    <glyph glyph-name="N" unicode="N" 
d="M0 500h100v-50h50v-50h50v-50h50v-50h50v-50h50v-50h50v300h100v-500h-100v50h-50v50h-50v50h-50v50h-50v50h-50v50h-50v-300h-100v500z" />
    <glyph glyph-name="O" unicode="O" 
d="M0 500h500v-500h-500v500zM100 100h300v300h-300v-300z" />
    <glyph glyph-name="P" unicode="P" 
d="M0 500h500v-300h-400v-200h-100v500zM100 300h300v100h-300v-100z" />
    <glyph glyph-name="Q" unicode="Q" 
d="M0 500h500v-350h-50v-50h50v-50h-50v-50h-50v50h-50v-50h-350v500zM250 200h50v50h50v-50h50v200h-300v-300h200v50h-50v50zM300 50h50v50h-50v-50zM400 150h50v50h-50v-50z" />
    <glyph glyph-name="R" unicode="R" 
d="M0 500h450v-50h50v-200h-50v-50h-50v-50h50v-50h50v-100h-100v50h-50v50h-50v50h-50v50h-150v-200h-100v500zM100 300h300v100h-300v-100z" />
    <glyph glyph-name="S" unicode="S" 
d="M0 500h500v-100h-400v-100h400v-300h-500v100h400v100h-400v300z" />
    <glyph glyph-name="T" unicode="T" 
d="M0 500h500v-100h-200v-400h-100v400h-200v100z" />
    <glyph glyph-name="U" unicode="U" 
d="M0 500h100v-400h300v400h100v-450h-50v-50h-400v50h-50v450z" />
    <glyph glyph-name="V" unicode="V" 
d="M0 500h100v-250h50v-50h50v-50h100v50h50v50h50v250h100v-300h-50v-50h-50v-50h-50v-50h-50v-50h-100v50h-50v50h-50v50h-50v50h-50v300z" />
    <glyph glyph-name="W" unicode="W" 
d="M0 500h100v-400h100v400h100v-400h100v400h100v-450h-50v-50h-400v50h-50v450z" />
    <glyph glyph-name="X" unicode="X" 
d="M0 500h100v-50h50v-50h50v-50h100v50h50v50h50v50h100v-100h-50v-50h-50v-50h-50v-100h50v-50h50v-50h50v-100h-100v50h-50v50h-50v50h-100v-50h-50v-50h-50v-50h-100v100h50v50h50v50h50v100h-50v50h-50v50h-50v100z" />
    <glyph glyph-name="Y" unicode="Y" 
d="M0 500h100v-50h50v-50h50v-50h100v50h50v50h50v50h100v-100h-50v-50h-50v-50h-50v-50h-50v-250h-100v250h-50v50h-50v50h-50v50h-50v100z" />
    <glyph glyph-name="Z" unicode="Z" 
d="M0 500h500v-100h-50v-50h-50v-50h-50v-50h-50v-50h-50v-50h-50v-50h300v-100h-500v100h50v50h50v50h50v50h50v50h50v50h50v50h-300v100z" />
    <glyph glyph-name="bracketleft" unicode="[" 
d="M200 500h200v-100h-100v-300h100v-100h-200v500z" />
    <glyph glyph-name="backslash" unicode="\" 
d="M100 500h100v-50h50v-50h50v-50h50v-50h50v-50h50v-50h50v-50h50v-50h50v-100h-100v50h-50v50h-50v50h-50v50h-50v50h-50v50h-50v50h-50v50h-50v100z" />
    <glyph glyph-name="bracketright" unicode="]" 
d="M100 500h200v-500h-200v100h100v300h-100v100z" />
    <glyph glyph-name="asciicircum" unicode="^" 
d="M50 300h50v50h50v50h50v50h100v-50h50v-50h50v-50h50v-100h-100v50h-50v50h-100v-50h-50v-50h-100v100z" />
    <glyph glyph-name="underscore" unicode="_" 
d="M0 100h500v-100h-500v100z" />
    <glyph glyph-name="grave" unicode="`" 
d="M150 500h100v-50h50v-50h50v-100h-100v50h-50v50h-50v100z" />
    <glyph glyph-name="a" unicode="a" 
d="M0 500h500v-500h-100v200h-300v-200h-100v500zM100 300h300v100h-300v-100z" />
    <glyph glyph-name="b" unicode="b" 
d="M0 500h450v-50h50v-400h-50v-50h-450v500zM100 300h300v100h-300v-100zM100 100h300v100h-300v-100z" />
    <glyph glyph-name="c" unicode="c" 
d="M0 500h500v-100h-400v-300h400v-100h-500v500z" />
    <glyph glyph-name="d" unicode="d" 
d="M0 500h450v-50h50v-400h-50v-50h-450v500zM100 100h300v300h-300v-300z" />
    <glyph glyph-name="e" unicode="e" 
d="M0 500h500v-100h-400v-100h350v-100h-350v-100h400v-100h-500v500z" />
    <glyph glyph-name="f" unicode="f" 
d="M0 500h500v-100h-400v-100h350v-100h-350v-200h-100v500z" />
    <glyph glyph-name="g" unicode="g" 
d="M0 500h500v-100h-400v-300h300v100h-150v100h250v-300h-500v500z" />
    <glyph glyph-name="h" unicode="h" 
d="M0 500h100v-200h300v200h100v-500h-100v200h-300v-200h-100v500z" />
    <glyph glyph-name="i" unicode="i" 
d="M100 500h300v-100h-100v-300h100v-100h-300v100h100v300h-100v100z" />
    <glyph glyph-name="j" unicode="j" 
d="M0 500h500v-450h-50v-50h-400v50h-50v150h100v-100h300v300h-400v100z" />
    <glyph glyph-name="k" unicode="k" 
d="M0 500h100v-200h150v50h50v50h50v50h50v50h100v-100h-50v-50h-50v-50h-50v-100h50v-50h50v-50h50v-100h-100v50h-50v50h-50v50h-50v50h-150v-200h-100v500z" />
    <glyph glyph-name="l" unicode="l" 
d="M0 500h100v-400h400v-100h-500v500z" />
    <glyph glyph-name="m" unicode="m" 
d="M0 500h100v-50h50v-50h50v-50h100v50h50v50h50v50h100v-500h-100v300h-50v-50h-50v-100h-100v100h-50v50h-50v-300h-100v500z" />
    <glyph glyph-name="n" unicode="n" 
d="M0 500h100v-50h50v-50h50v-50h50v-50h50v-50h50v-50h50v300h100v-500h-100v50h-50v50h-50v50h-50v50h-50v50h-50v50h-50v-300h-100v500z" />
    <glyph glyph-name="o" unicode="o" 
d="M0 500h500v-500h-500v500zM100 100h300v300h-300v-300z" />
    <glyph glyph-name="p" unicode="p" 
d="M0 500h500v-300h-400v-200h-100v500zM100 300h300v100h-300v-100z" />
    <glyph glyph-name="q" unicode="q" 
d="M0 500h500v-350h-50v-50h50v-50h-50v-50h-50v50h-50v-50h-350v500zM250 200h50v50h50v-50h50v200h-300v-300h200v50h-50v50zM300 50h50v50h-50v-50zM400 150h50v50h-50v-50z" />
    <glyph glyph-name="r" unicode="r" 
d="M0 500h450v-50h50v-200h-50v-50h-50v-50h50v-50h50v-100h-100v50h-50v50h-50v50h-50v50h-150v-200h-100v500zM100 300h300v100h-300v-100z" />
    <glyph glyph-name="s" unicode="s" 
d="M0 500h500v-100h-400v-100h400v-300h-500v100h400v100h-400v300z" />
    <glyph glyph-name="t" unicode="t" 
d="M0 500h500v-100h-200v-400h-100v400h-200v100z" />
    <glyph glyph-name="u" unicode="u" 
d="M0 500h100v-400h300v400h100v-450h-50v-50h-400v50h-50v450z" />
    <glyph glyph-name="v" unicode="v" 
d="M0 500h100v-250h50v-50h50v-50h100v50h50v50h50v250h100v-300h-50v-50h-50v-50h-50v-50h-50v-50h-100v50h-50v50h-50v50h-50v50h-50v300z" />
    <glyph glyph-name="w" unicode="w" 
d="M0 500h100v-400h100v400h100v-400h100v400h100v-450h-50v-50h-400v50h-50v450z" />
    <glyph glyph-name="x" unicode="x" 
d="M0 500h100v-50h50v-50h50v-50h100v50h50v50h50v50h100v-100h-50v-50h-50v-50h-50v-100h50v-50h50v-50h50v-100h-100v50h-50v50h-50v50h-100v-50h-50v-50h-50v-50h-100v100h50v50h50v50h50v100h-50v50h-50v50h-50v100z" />
    <glyph glyph-name="y" unicode="y" 
d="M0 500h100v-50h50v-50h50v-50h100v50h50v50h50v50h100v-100h-50v-50h-50v-50h-50v-50h-50v-250h-100v250h-50v50h-50v50h-50v50h-50v100z" />
    <glyph glyph-name="z" unicode="z" 
d="M0 500h500v-100h-50v-50h-50v-50h-50v-50h-50v-50h-50v-50h-50v-50h300v-100h-500v100h50v50h50v50h50v50h50v50h50v50h50v50h-300v100z" />
    <glyph glyph-name="braceleft" unicode="{" 
d="M100 300h100v200h200v-100h-100v-300h100v-100h-200v200h-100v100z" />
    <glyph glyph-name="bar" unicode="|" 
d="M200 500h100v-500h-100v500z" />
    <glyph glyph-name="braceright" unicode="}" 
d="M100 500h200v-200h100v-100h-100v-200h-200v100h100v300h-100v100z" />
    <glyph glyph-name="asciitilde" unicode="~" 
d="M0 500h300v-100h100v100h100v-200h-300v100h-100v-100h-100v200z" />
    <glyph glyph-name="currency" unicode="&#xa4;" 
d="M100 400h100v-50h100v50h100v-100h-50v-100h50v-100h-100v50h-100v-50h-100v100h50v100h-50v100zM200 200h100v100h-100v-100z" />
    <glyph glyph-name="brokenbar" unicode="&#xa6;" 
d="M200 500h100v-200h-100v200zM200 200h100v-200h-100v200z" />
    <glyph glyph-name="section" unicode="&#xa7;" 
d="M0 500h500v-100h-400v-50h400v-350h-500v100h400v50h-400v350zM100 200h300v100h-300v-100z" />
    <glyph glyph-name="copyright" unicode="&#xa9;" 
d="M0 500h500v-500h-500v500zM100 100h300v300h-300v-300zM150 350h200v-50h-150v-100h150v-50h-200v200z" />
    <glyph glyph-name="guillemotleft" unicode="&#xab;" 
d="M0 250h50v50h50v50h50v50h100v-100h-50v-50h-50v-50h50v-50h50v-100h-100v50h-50v50h-50v50h-50v50zM250 250h50v50h50v50h50v50h100v-100h-50v-50h-50v-50h50v-50h50v-100h-100v50h-50v50h-50v50h-50v50z" />
    <glyph glyph-name="logicalnot" unicode="&#xac;" 
d="M0 400h500v-250h-100v150h-400v100z" />
    <glyph glyph-name="uni00AD" unicode="&#xad;" 
d="M100 300h300v-100h-300v100z" />
    <glyph glyph-name="registered" unicode="&#xae;" 
d="M0 500h500v-500h-500v500zM100 100h300v300h-300v-300zM150 350h200v-100h-50v-50h50v-50h-50v50h-100v-50h-50v200zM200 300v-50h100v50h-100z" />
    <glyph glyph-name="degree" unicode="&#xb0;" 
d="M100 300h50v50h50v50h100v-50h50v-50h50v-100h-50v-50h-50v-50h-100v50h-50v50h-50v100zM200 200h100v100h-100v-100z" />
    <glyph glyph-name="plusminus" unicode="&#xb1;" 
d="M100 350h100v100h100v-100h100v-100h-100v-100h-100v100h-100v100zM100 100h300v-100h-300v100z" />
    <glyph glyph-name="mu" unicode="&#xb5;" 
d="M0 500h100v-200h50v-50h50v-50h100v50h50v50h50v200h100v-500h-100v150h-50v-50h-50v-100h-100v100h-50v50h-50v-200h-100v550z" />
    <glyph glyph-name="paragraph" unicode="&#xb6;" 
d="M0 450h50v50h400v-100h-50v-400h-100v400h-100v-400h-100v250h-50v50h-50v150z" />
    <glyph glyph-name="periodcentered" unicode="&#xb7;" 
d="M200 300h100v-100h-100v100z" />
    <glyph glyph-name="guillemotright" unicode="&#xbb;" 
d="M0 400h100v-50h50v-50h50v-50h50v-50h-50v-50h-50v-50h-50v-50h-100v100h50v50h50v50h-50v50h-50v100zM250 400h100v-50h50v-50h50v-50h50v-50h-50v-50h-50v-50h-50v-50h-100v100h50v50h50v50h-50v50h-50v100z" />
    <glyph glyph-name="afii10023" unicode="&#x401;" 
d="M0 500h100v50h100v-50h100v50h100v-50h100v-100h-400v-100h350v-100h-350v-100h400v-100h-500v500z" />
    <glyph glyph-name="afii10051" unicode="&#x402;" 
d="M0 500h300v-100h-200v-100h400v-300h-300v100h200v100h-300v-200h-100v500z" />
    <glyph glyph-name="afii10052" unicode="&#x403;" 
d="M0 500h250v50h100v-50h150v-100h-400v-400h-100v500z" />
    <glyph glyph-name="afii10053" unicode="&#x404;" 
d="M0 450h50v50h450v-100h-400v-100h300v-100h-300v-100h400v-100h-450v50h-50v400z" />
    <glyph glyph-name="afii10054" unicode="&#x405;" 
d="M0 500h500v-100h-400v-100h400v-300h-500v100h400v100h-400v300z" />
    <glyph glyph-name="afii10055" unicode="&#x406;" 
d="M100 500h300v-100h-100v-300h100v-100h-300v100h100v300h-100v100z" />
    <glyph glyph-name="afii10056" unicode="&#x407;" 
d="M100 500h100v-100h100v100h100v-100h-100v-300h100v-100h-300v100h100v300h-100v100z" />
    <glyph glyph-name="afii10057" unicode="&#x408;" 
d="M0 500h500v-450h-50v-50h-400v50h-50v150h100v-100h300v300h-400v100z" />
    <glyph glyph-name="afii10058" unicode="&#x409;" 
d="M0 450h50v50h250v-200h200v-300h-300v400h-100v-400h-100v450zM300 100h100v100h-100v-100z" />
    <glyph glyph-name="afii10059" unicode="&#x40a;" 
d="M0 500h100v-200h100v200h100v-200h200v-300h-300v200h-100v-200h-100v500zM300 100h100v100h-100v-100z" />
    <glyph glyph-name="afii10060" unicode="&#x40b;" 
d="M0 500h300v-100h-200v-100h400v-300h-100v200h-300v-200h-100v500z" />
    <glyph glyph-name="afii10061" unicode="&#x40c;" 
d="M0 500h100v-200h150v50h50v50h50v50h50v50h100v-100h-50v-50h-50v-50h-50v-100h50v-50h50v-50h50v-100h-100v50h-50v50h-50v50h-50v50h-150v-200h-100v500zM150 500h50v50h150v-50h-50v-50h-150v50z" />
    <glyph glyph-name="afii10062" unicode="&#x40e;" 
d="M0 500h100v-50h50v-50h50v-50h100v50h50v50h50v50h100v-100h-50v-50h-50v-50h-50v-50h-50v-250h-100v250h-50v50h-50v50h-50v50h-50v100zM200 550h100v-100h-100v100z" />
    <glyph glyph-name="afii10145" unicode="&#x40f;" 
d="M0 500h100v-400h300v400h100v-500h-200v-50h-100v50h-200v500z" />
    <glyph glyph-name="afii10017" unicode="&#x410;" 
d="M0 500h500v-500h-100v200h-300v-200h-100v500zM100 300h300v100h-300v-100z" />
    <glyph glyph-name="afii10018" unicode="&#x411;" 
d="M0 500h500v-100h-400v-100h350v-50h50v-200h-50v-50h-450v500zM100 100h300v100h-300v-100z" />
    <glyph glyph-name="afii10019" unicode="&#x412;" 
d="M0 500h450v-50h50v-400h-50v-50h-450v500zM100 300h300v100h-300v-100zM100 100h300v100h-300v-100z" />
    <glyph glyph-name="afii10020" unicode="&#x413;" 
d="M0 500h500v-100h-400v-400h-100v500z" />
    <glyph glyph-name="afii10021" unicode="&#x414;" 
d="M0 100h50v400h400v-400h50v-150h-100v50h-300v-50h-100v150zM350 400h-200v-300h200v300z" />
    <glyph glyph-name="afii10022" unicode="&#x415;" 
d="M0 500h500v-100h-400v-100h350v-100h-350v-100h400v-100h-500v500z" />
    <glyph glyph-name="afii10024" unicode="&#x416;" 
d="M0 500h100v-200h100v200h100v-200h100v200h100v-500h-100v200h-100v-200h-100v200h-100v-200h-100v500z" />
    <glyph glyph-name="afii10025" unicode="&#x417;" 
d="M0 500h450v-50h50v-150h-50v-100h50v-150h-50v-50h-450v100h400v100h-350v100h350v100h-400v100z" />
    <glyph glyph-name="afii10026" unicode="&#x418;" 
d="M0 500h100v-300h50v50h50v50h50v50h50v50h50v50h50v50h100v-500h-100v300h-50v-50h-50v-50h-50v-50h-50v-50h-50v-50h-50v-50h-100v500z" />
    <glyph glyph-name="afii10027" unicode="&#x419;" 
d="M0 500h100v-300h50v50h50v50h50v50h50v50h50v50h50v50h100v-500h-100v300h-50v-50h-50v-50h-50v-50h-50v-50h-50v-50h-50v-50h-100v500zM200 550h100v-100h-100v100z" />
    <glyph glyph-name="afii10028" unicode="&#x41a;" 
d="M0 500h100v-200h150v50h50v50h50v50h50v50h100v-100h-50v-50h-50v-50h-50v-100h50v-50h50v-50h50v-100h-100v50h-50v50h-50v50h-50v50h-150v-200h-100v500z" />
    <glyph glyph-name="afii10029" unicode="&#x41b;" 
d="M0 400h50v50h50v50h400v-500h-100v400h-250v-50h-50v-350h-100v400z" />
    <glyph glyph-name="afii10030" unicode="&#x41c;" 
d="M0 500h100v-50h50v-50h50v-50h100v50h50v50h50v50h100v-500h-100v300h-50v-50h-50v-100h-100v100h-50v50h-50v-300h-100v500z" />
    <glyph glyph-name="afii10031" unicode="&#x41d;" 
d="M0 500h100v-200h300v200h100v-500h-100v200h-300v-200h-100v500z" />
    <glyph glyph-name="afii10032" unicode="&#x41e;" 
d="M0 500h500v-500h-500v500zM100 100h300v300h-300v-300z" />
    <glyph glyph-name="afii10033" unicode="&#x41f;" 
d="M0 500h500v-500h-100v400h-300v-400h-100v500z" />
    <glyph glyph-name="afii10034" unicode="&#x420;" 
d="M0 500h500v-300h-400v-200h-100v500zM100 300h300v100h-300v-100z" />
    <glyph glyph-name="afii10035" unicode="&#x421;" 
d="M0 500h500v-100h-400v-300h400v-100h-500v500z" />
    <glyph glyph-name="afii10036" unicode="&#x422;" 
d="M0 500h500v-100h-200v-400h-100v400h-200v100z" />
    <glyph glyph-name="afii10037" unicode="&#x423;" 
d="M0 500h100v-200h300v200h100v-450h-50v-50h-450v100h400v100h-400v300z" />
    <glyph glyph-name="afii10038" unicode="&#x424;" 
d="M0 450h50v50h400v-50h50v-300h-50v-50h-150v-100h-100v100h-150v50h-50v300zM100 200h100v200h-100v-200zM400 400h-100v-200h100v200z" />
    <glyph glyph-name="afii10039" unicode="&#x425;" 
d="M0 500h100v-50h50v-50h50v-50h100v50h50v50h50v50h100v-100h-50v-50h-50v-50h-50v-100h50v-50h50v-50h50v-100h-100v50h-50v50h-50v50h-100v-50h-50v-50h-50v-50h-100v100h50v50h50v50h50v100h-50v50h-50v50h-50v100z" />
    <glyph glyph-name="afii10040" unicode="&#x426;" 
d="M0 500h100v-400h300v400h100v-550h-100v50h-400v500z" />
    <glyph glyph-name="afii10041" unicode="&#x427;" 
d="M0 500h100v-200h300v200h100v-500h-100v200h-350v50h-50v250z" />
    <glyph glyph-name="afii10042" unicode="&#x428;" 
d="M0 500h100v-400h100v400h100v-400h100v400h100v-500h-500v500z" />
    <glyph glyph-name="afii10043" unicode="&#x429;" 
d="M0 500h100v-400h100v400h100v-400h100v400h100v-550h-100v50h-400v500z" />
    <glyph glyph-name="afii10044" unicode="&#x42a;" 
d="M0 500h200v-100h-100v-100h350v-50h50v-200h-50v-50h-450v500zM100 100h300v100h-300v-100z" />
    <glyph glyph-name="afii10045" unicode="&#x42b;" 
d="M0 500h100v-200h350v50h-50v150h100v-200h-50v-50h50v-200h-50v-50h-450v500zM100 100h300v100h-300v-100z" />
    <glyph glyph-name="afii10046" unicode="&#x42c;" 
d="M0 500h100v-200h350v-50h50v-200h-50v-50h-450v500zM100 100h300v100h-300v-100z" />
    <glyph glyph-name="afii10047" unicode="&#x42d;" 
d="M0 500h450v-50h50v-400h-50v-50h-450v100h400v100h-300v100h300v100h-400v100z" />
    <glyph glyph-name="afii10048" unicode="&#x42e;" 
d="M0 500h100v-200h100v200h300v-500h-300v200h-100v-200h-100v500zM300 100h100v300h-100v-300z" />
    <glyph glyph-name="afii10049" unicode="&#x42f;" 
d="M0 450h50v50h450v-500h-100v200h-150v-50h-50v-50h-50v-50h-50v-50h-100v100h50v50h50v50h-50v50h-50v200zM100 300h300v100h-300v-100z" />
    <glyph glyph-name="afii10065" unicode="&#x430;" 
d="M0 500h500v-500h-100v200h-300v-200h-100v500zM100 300h300v100h-300v-100z" />
    <glyph glyph-name="afii10066" unicode="&#x431;" 
d="M0 500h500v-100h-400v-100h350v-50h50v-200h-50v-50h-450v500zM100 100h300v100h-300v-100z" />
    <glyph glyph-name="afii10067" unicode="&#x432;" 
d="M0 500h450v-50h50v-400h-50v-50h-450v500zM100 300h300v100h-300v-100zM100 100h300v100h-300v-100z" />
    <glyph glyph-name="afii10068" unicode="&#x433;" 
d="M0 500h500v-100h-400v-400h-100v500z" />
    <glyph glyph-name="afii10069" unicode="&#x434;" 
d="M0 100h50v400h400v-400h50v-150h-100v50h-300v-50h-100v150zM350 400h-200v-300h200v300z" />
    <glyph glyph-name="afii10070" unicode="&#x435;" 
d="M0 500h500v-100h-400v-100h350v-100h-350v-100h400v-100h-500v500z" />
    <glyph glyph-name="afii10072" unicode="&#x436;" 
d="M0 500h100v-200h100v200h100v-200h100v200h100v-500h-100v200h-100v-200h-100v200h-100v-200h-100v500z" />
    <glyph glyph-name="afii10073" unicode="&#x437;" 
d="M0 500h450v-50h50v-150h-50v-100h50v-150h-50v-50h-450v100h400v100h-350v100h350v100h-400v100z" />
    <glyph glyph-name="afii10074" unicode="&#x438;" 
d="M0 500h100v-300h50v50h50v50h50v50h50v50h50v50h50v50h100v-500h-100v300h-50v-50h-50v-50h-50v-50h-50v-50h-50v-50h-50v-50h-100v500z" />
    <glyph glyph-name="afii10075" unicode="&#x439;" 
d="M0 500h100v-300h50v50h50v50h50v50h50v50h50v50h50v50h100v-500h-100v300h-50v-50h-50v-50h-50v-50h-50v-50h-50v-50h-50v-50h-100v500zM200 550h100v-100h-100v100z" />
    <glyph glyph-name="afii10076" unicode="&#x43a;" 
d="M0 500h100v-200h150v50h50v50h50v50h50v50h100v-100h-50v-50h-50v-50h-50v-100h50v-50h50v-50h50v-100h-100v50h-50v50h-50v50h-50v50h-150v-200h-100v500z" />
    <glyph glyph-name="afii10077" unicode="&#x43b;" 
d="M0 400h50v50h50v50h400v-500h-100v400h-250v-50h-50v-350h-100v400z" />
    <glyph glyph-name="afii10078" unicode="&#x43c;" 
d="M0 500h100v-50h50v-50h50v-50h100v50h50v50h50v50h100v-500h-100v300h-50v-50h-50v-100h-100v100h-50v50h-50v-300h-100v500z" />
    <glyph glyph-name="afii10079" unicode="&#x43d;" 
d="M0 500h100v-200h300v200h100v-500h-100v200h-300v-200h-100v500z" />
    <glyph glyph-name="afii10080" unicode="&#x43e;" 
d="M0 500h500v-500h-500v500zM100 100h300v300h-300v-300z" />
    <glyph glyph-name="afii10081" unicode="&#x43f;" 
d="M0 500h500v-500h-100v400h-300v-400h-100v500z" />
    <glyph glyph-name="afii10082" unicode="&#x440;" 
d="M0 500h500v-300h-400v-200h-100v500zM100 300h300v100h-300v-100z" />
    <glyph glyph-name="afii10083" unicode="&#x441;" 
d="M0 500h500v-100h-400v-300h400v-100h-500v500z" />
    <glyph glyph-name="afii10084" unicode="&#x442;" 
d="M0 500h500v-100h-200v-400h-100v400h-200v100z" />
    <glyph glyph-name="afii10085" unicode="&#x443;" 
d="M0 500h100v-200h300v200h100v-450h-50v-50h-450v100h400v100h-400v300z" />
    <glyph glyph-name="afii10086" unicode="&#x444;" 
d="M0 450h50v50h400v-50h50v-300h-50v-50h-150v-100h-100v100h-150v50h-50v300zM100 200h100v200h-100v-200zM400 400h-100v-200h100v200z" />
    <glyph glyph-name="afii10087" unicode="&#x445;" 
d="M0 500h100v-50h50v-50h50v-50h100v50h50v50h50v50h100v-100h-50v-50h-50v-50h-50v-100h50v-50h50v-50h50v-100h-100v50h-50v50h-50v50h-100v-50h-50v-50h-50v-50h-100v100h50v50h50v50h50v100h-50v50h-50v50h-50v100z" />
    <glyph glyph-name="afii10088" unicode="&#x446;" 
d="M0 500h100v-400h300v400h100v-550h-100v50h-400v500z" />
    <glyph glyph-name="afii10089" unicode="&#x447;" 
d="M0 500h100v-200h300v200h100v-500h-100v200h-350v50h-50v250z" />
    <glyph glyph-name="afii10090" unicode="&#x448;" 
d="M0 500h100v-400h100v400h100v-400h100v400h100v-500h-500v500z" />
    <glyph glyph-name="afii10091" unicode="&#x449;" 
d="M0 500h100v-400h100v400h100v-400h100v400h100v-550h-100v50h-400v500z" />
    <glyph glyph-name="afii10092" unicode="&#x44a;" 
d="M0 500h200v-100h-100v-100h350v-50h50v-200h-50v-50h-450v500zM100 100h300v100h-300v-100z" />
    <glyph glyph-name="afii10093" unicode="&#x44b;" 
d="M0 500h100v-200h350v50h-50v150h100v-200h-50v-50h50v-200h-50v-50h-450v500zM100 100h300v100h-300v-100z" />
    <glyph glyph-name="afii10094" unicode="&#x44c;" 
d="M0 500h100v-200h350v-50h50v-200h-50v-50h-450v500zM100 100h300v100h-300v-100z" />
    <glyph glyph-name="afii10095" unicode="&#x44d;" 
d="M0 500h450v-50h50v-400h-50v-50h-450v100h400v100h-300v100h300v100h-400v100z" />
    <glyph glyph-name="afii10096" unicode="&#x44e;" 
d="M0 500h100v-200h100v200h300v-500h-300v200h-100v-200h-100v500zM300 100h100v300h-100v-300z" />
    <glyph glyph-name="afii10097" unicode="&#x44f;" 
d="M0 450h50v50h450v-500h-100v200h-150v-50h-50v-50h-50v-50h-50v-50h-100v100h50v50h50v50h-50v50h-50v200zM100 300h300v100h-300v-100z" />
    <glyph glyph-name="afii10071" unicode="&#x451;" 
d="M0 500h100v50h100v-50h100v50h100v-50h100v-100h-400v-100h350v-100h-350v-100h400v-100h-500v500z" />
    <glyph glyph-name="afii10099" unicode="&#x452;" 
d="M0 500h300v-100h-200v-100h400v-300h-300v100h200v100h-300v-200h-100v500z" />
    <glyph glyph-name="afii10100" unicode="&#x453;" 
d="M0 500h250v50h100v-50h150v-100h-400v-400h-100v500z" />
    <glyph glyph-name="afii10101" unicode="&#x454;" 
d="M0 450h50v50h450v-100h-400v-100h300v-100h-300v-100h400v-100h-450v50h-50v400z" />
    <glyph glyph-name="afii10102" unicode="&#x455;" 
d="M0 500h500v-100h-400v-100h400v-300h-500v100h400v100h-400v300z" />
    <glyph glyph-name="afii10103" unicode="&#x456;" 
d="M100 500h300v-100h-100v-300h100v-100h-300v100h100v300h-100v100z" />
    <glyph glyph-name="afii10104" unicode="&#x457;" 
d="M100 500h100v-100h100v100h100v-100h-100v-300h100v-100h-300v100h100v300h-100v100z" />
    <glyph glyph-name="afii10105" unicode="&#x458;" 
d="M0 500h500v-450h-50v-50h-400v50h-50v150h100v-100h300v300h-400v100z" />
    <glyph glyph-name="afii10106" unicode="&#x459;" 
d="M0 450h50v50h250v-200h200v-300h-300v400h-100v-400h-100v450zM300 100h100v100h-100v-100z" />
    <glyph glyph-name="afii10107" unicode="&#x45a;" 
d="M0 500h100v-200h100v200h100v-200h200v-300h-300v200h-100v-200h-100v500zM300 100h100v100h-100v-100z" />
    <glyph glyph-name="afii10108" unicode="&#x45b;" 
d="M0 500h300v-100h-200v-100h400v-300h-100v200h-300v-200h-100v500z" />
    <glyph glyph-name="afii10109" unicode="&#x45c;" 
d="M0 500h100v-200h150v50h50v50h50v50h50v50h100v-100h-50v-50h-50v-50h-50v-100h50v-50h50v-50h50v-100h-100v50h-50v50h-50v50h-50v50h-150v-200h-100v500zM150 500h50v50h150v-50h-50v-50h-150v50z" />
    <glyph glyph-name="afii10110" unicode="&#x45e;" 
d="M0 500h100v-50h50v-50h50v-50h100v50h50v50h50v50h100v-100h-50v-50h-50v-50h-50v-50h-50v-250h-100v250h-50v50h-50v50h-50v50h-50v100zM200 550h100v-100h-100v100z" />
    <glyph glyph-name="afii10193" unicode="&#x45f;" 
d="M0 500h100v-400h300v400h100v-500h-200v-50h-100v50h-200v500z" />
    <glyph glyph-name="afii10050" unicode="&#x490;" 
d="M0 500h400v50h100v-150h-400v-400h-100v500z" />
    <glyph glyph-name="afii10098" unicode="&#x491;" 
d="M0 500h400v50h100v-150h-400v-400h-100v500z" />
    <glyph glyph-name="endash" unicode="&#x2013;" 
d="M100 300h300v-100h-300v100z" />
    <glyph glyph-name="emdash" unicode="&#x2014;" 
d="M50 300h400v-100h-400v100z" />
    <glyph glyph-name="quoteleft" unicode="&#x2018;" 
d="M200 550h50v-50h50v-100h-100v150z" />
    <glyph glyph-name="quoteright" unicode="&#x2019;" 
d="M200 500h100v-150h-50v50h-50v100z" />
    <glyph glyph-name="quotesinglbase" unicode="&#x201a;" 
d="M200 100h100v-150h-50v50h-50v100z" />
    <glyph glyph-name="quotedblleft" unicode="&#x201c;" 
d="M100 550h50v-50h50v-100h-100v150zM300 550h50v-50h50v-100h-100v150z" />
    <glyph glyph-name="quotedblright" unicode="&#x201d;" 
d="M100 500h100v-150h-50v50h-50v100zM300 500h100v-150h-50v50h-50v100z" />
    <glyph glyph-name="quotedblbase" unicode="&#x201e;" 
d="M100 100h100v-150h-50v50h-50v100zM300 100h100v-150h-50v50h-50v100z" />
    <glyph glyph-name="dagger" unicode="&#x2020;" 
d="M100 400h100v100h100v-100h100v-100h-100v-300h-100v300h-100v100z" />
    <glyph glyph-name="daggerdbl" unicode="&#x2021;" 
d="M100 400h100v100h100v-100h100v-100h-100v-100h100v-100h-100v-100h-100v100h-100v100h100v100h-100v100z" />
    <glyph glyph-name="bullet" unicode="&#x2022;" 
d="M150 300h50v50h100v-50h50v-100h-50v-50h-100v50h-50v100z" />
    <glyph glyph-name="ellipsis" unicode="&#x2026;" 
d="M0 100h100v-100h-100v100zM400 100h100v-100h-100v100zM200 100h100v-100h-100v100z" />
    <glyph glyph-name="perthousand" unicode="&#x2030;" 
d="M0 100h50v50h50v50h50v50h50v50h50v50h50v50h50v50h50v50h100v-100h-50v-50h-50v-50h-50v-50h-50v-50h-50v-50h100v-150h-100v150h-50v-50h-50v-50h-50v-50h-100v100zM0 500h100v-150h-100v150zM400 150h100v-150h-100v150z" />
    <glyph glyph-name="guilsinglleft" unicode="&#x2039;" 
d="M100 300h50v50h50v50h50v50h100v-100h-50v-50h-50v-100h50v-50h50v-100h-100v50h-50v50h-50v50h-50v100z" />
    <glyph glyph-name="guilsinglright" unicode="&#x203a;" 
d="M150 450h100v-50h50v-50h50v-50h50v-100h-50v-50h-50v-50h-50v-50h-100v100h50v50h50v100h-50v50h-50v100z" />
    <glyph glyph-name="Euro" unicode="&#x20ac;" 
d="M0 450h50v50h450v-100h-400v-50h350v-50h-350v-100h350v-50h-350v-50h400v-100h-450v50h-50v400z" />
    <glyph glyph-name="afii61352" unicode="&#x2116;" 
d="M0 500h100v-50h50v-50h50v-50h50v-50h50v-50h50v-50h50v200h100v-400h-100v50h-50v50h-50v50h-50v50h-50v50h-50v50h-50v-300h-100v500zM400 550h100v-100h-100v100z" />
    <glyph glyph-name="trademark" unicode="&#x2122;" 
d="M0 400h300v-50h50v-50h50v50h50v50h50v-250h-50v150h-50v-50h-50v50h-50v-150h-50v200h-100v-200h-50v200h-100v50z" />
  </font>
</defs>
</svg>
